<?xml version="1.0" encoding="UTF-8"?>
<svg id="Capa_1" xmlns="http://www.w3.org/2000/svg" version="1.1" xmlns:xlink="http://www.w3.org/1999/xlink" viewBox="0 0 400 438">
  <!-- Generator: Adobe Illustrator 29.3.1, SVG Export Plug-In . SVG Version: 2.1.0 Build 151)  -->
  <defs>
    <style>
      .st0 {
        fill: url(#Degradado_sin_nombre_2);
      }

      .st0, .st1, .st2, .st3 {
        isolation: isolate;
      }

      .st0, .st2, .st3, .st4 {
        opacity: .5;
      }

      .st5, .st3 {
        fill: #377dff;
      }

      .st6 {
        fill: #ffc107;
      }

      .st7 {
        fill: #fff;
      }

      .st8, .st2 {
        fill: #00c9a7;
      }

      .st9 {
        fill: none;
      }

      .st1 {
        fill: #bdc5d1;
        opacity: .3;
      }

      .st10 {
        clip-path: url(#clippath-1);
      }

      .st11 {
        fill: #de4437;
      }

      .st12 {
        fill: #e7eaf3;
      }

      .st13 {
        fill: url(#Degradado_sin_nombre_3);
      }

      .st14 {
        fill: url(#Degradado_sin_nombre);
      }

      .st15 {
        display: none;
      }

      .st16 {
        clip-path: url(#clippath);
      }
    </style>
    <clipPath id="clippath">
      <rect class="st9" x="31.8" y="65.4" width="390.9" height="357.3" transform="translate(-81.3 370.8) rotate(-69.4)"/>
    </clipPath>
    <linearGradient id="Degradado_sin_nombre" data-name="Degradado sin nombre" x1="84.3" y1="356.7" x2="84.3" y2="402.3" gradientTransform="translate(-69.6 355.3) rotate(20.6) scale(1 -1)" gradientUnits="userSpaceOnUse">
      <stop offset="0" stop-color="#b3b3b3" stop-opacity=".2"/>
      <stop offset=".5" stop-color="#b3b3b3" stop-opacity=".1"/>
      <stop offset="1" stop-color="#b3b3b3" stop-opacity="0"/>
    </linearGradient>
    <linearGradient id="Degradado_sin_nombre_2" data-name="Degradado sin nombre 2" x1="368.2" y1="37.5" x2="368.2" y2="87.1" gradientTransform="translate(-69.6 355.3) rotate(20.6) scale(1 -1)" gradientUnits="userSpaceOnUse">
      <stop offset="0" stop-color="gray" stop-opacity=".2"/>
      <stop offset=".5" stop-color="gray" stop-opacity=".1"/>
      <stop offset="1" stop-color="gray" stop-opacity=".1"/>
    </linearGradient>
    <linearGradient id="Degradado_sin_nombre_3" data-name="Degradado sin nombre 3" x1="135.8" y1="334.6" x2="135.8" y2="380.2" gradientTransform="translate(-69.6 355.3) rotate(20.6) scale(1 -1)" gradientUnits="userSpaceOnUse">
      <stop offset="0" stop-color="#b3b3b3" stop-opacity=".2"/>
      <stop offset=".5" stop-color="#b3b3b3" stop-opacity=".1"/>
      <stop offset="1" stop-color="#b3b3b3" stop-opacity="0"/>
    </linearGradient>
    <clipPath id="clippath-1">
      <rect class="st9" x="-47.6" y="-15.1" width="506" height="498.1"/>
    </clipPath>
  </defs>
  <g class="st16">
    <g>
      <path class="st12" d="M207.9,365.2c9-23.8,40.7-36.9,64.5-27.9,3.6,1.4,7.5,1.8,10.6,3.9.4-1,2.8-7.1,3.2-8.1l90.9-241.4L171.2,14.2l-58.6,27.5L6.8,322.6l194.3,73.1c-1.7-8.2,3.6-22.1,6.8-30.5Z"/>
      <path class="st7" d="M202.5,368.4c11.2-29.7,44.3-44.7,74-33.5,1.6.6,3.2,1.3,4.7,2l46.9-124.6L87,121.5,12.8,318.5l186,70c0-6.9,1.3-13.7,3.7-20.1Z"/>
      <path class="st7" d="M327.2,214.1L85.5,123.1l30.2-80.3,54.5-26.2,202.6,76.3-45.6,121.1Z"/>
      <path class="st5" d="M348.6,111.7l-65.6-24.7-1.9,5,65.6,24.7,1.9-5Z"/>
      <path class="st5" d="M341.7,130l-65.6-24.7-1.9,5,65.6,24.7,1.9-5Z"/>
      <path class="st5" d="M334.8,148.4l-65.6-24.7-1.9,5,65.6,24.7,1.9-5Z"/>
      <path class="st3" d="M327.8,166.8l-65.6-24.7-1.9,5,65.6,24.7,1.9-5Z"/>
      <path class="st5" d="M320.9,185.2l-65.6-24.7-1.9,5,65.6,24.7,1.9-5Z"/>
      <path class="st5" d="M314,203.5l-65.6-24.7-1.9,5,65.6,24.7,1.9-5Z"/>
      <path class="st3" d="M174,195.4l-65.6-24.7-1.9,5,65.6,24.7,1.9-5Z"/>
      <path class="st5" d="M166.4,215.4l-65.6-24.7-1.9,5,65.6,24.7,1.9-5Z"/>
      <path class="st2" d="M275.8,245.2l-171.2-64.4-1.9,5,171.2,64.4,1.9-5Z"/>
      <path class="st3" d="M155.8,243.7l-65.6-24.7-1.9,5,65.6,24.7,1.9-5Z"/>
      <path class="st5" d="M148.2,263.8l-65.6-24.7-1.9,5,65.6,24.7,1.9-5Z"/>
      <path class="st8" d="M257.6,293.5l-171.2-64.4-1.9,5,171.2,64.4,1.9-5Z"/>
      <path class="st3" d="M137.6,292.1l-65.6-24.7-1.9,5,65.6,24.7,1.9-5Z"/>
      <path class="st5" d="M130,312.1l-65.6-24.7-1.9,5,65.6,24.7,1.9-5Z"/>
      <path class="st12" d="M208.5,330.2l-140.3-52.8-1.9,5,140.3,52.8,1.9-5Z"/>
      <path class="st5" d="M222.7,180.9l-119.4-45,39.2-104.3,6-3.5,9.6,3.6,105.7,39.8-41.1,109.3Z"/>
      <path class="st14" d="M114.5,43.4l40.9,15.4,16.1-42.7-57,27.3Z"/>
      <path class="st12" d="M115.7,42.9l39.1,14.7,15.4-40.9-54.5,26.2Z"/>
      <path class="st12" d="M279.6,472.7c25.4,9.6,53.7-3.3,63.3-28.7,9.6-25.4-3.3-53.7-28.7-63.3-25.4-9.6-53.7,3.3-63.3,28.7-9.6,25.4,3.3,53.7,28.7,63.3Z"/>
      <path class="st8" d="M280.8,469.7c23.8,8.9,50.3-3.1,59.2-26.8,8.9-23.8-3.1-50.3-26.8-59.2-23.8-8.9-50.3,3.1-59.2,26.8-8.9,23.8,3.1,50.3,26.8,59.2Z"/>
      <g class="st4">
        <path class="st0" d="M322.1,430.2l-18-6.8,6.8-18.1-10.4-3.9-6.8,18.1-18.1-6.8-3.9,10.3,18.1,6.8-6.8,18.1,10.4,3.9,6.8-18.1,18,6.8,3.9-10.3Z"/>
      </g>
      <path class="st7" d="M308.8,408.6l-8.8-3.3-14.9,39.5,8.8,3.3,14.9-39.5Z"/>
      <path class="st7" d="M318.4,429.7l-39.5-14.9-3.3,8.8,39.5,14.9,3.3-8.8Z"/>
      <path class="st12" d="M248.4,404c9-23.8,40.7-36.9,64.5-27.9,3.6,1.4,7.5,1.8,10.6,3.9.4-1,2.8-7.1,3.2-8.1l90.9-241.4L211.6,53l-58.6,27.5L47.3,361.4l194.3,73.1c-1.7-8.2,3.6-22.1,6.8-30.5Z"/>
      <path class="st7" d="M243,407.2c11.2-29.7,44.3-44.7,74-33.5,1.6.6,3.2,1.3,4.7,2l46.9-124.6-241.2-90.8-74.1,197,186,70c0-6.9,1.3-13.7,3.7-20.1Z"/>
      <path class="st7" d="M367.7,252.9l-241.7-91,30.2-80.3,54.5-26.2,202.6,76.3-45.6,121.1Z"/>
      <path class="st5" d="M389,150.5l-65.6-24.7-1.9,5,65.6,24.7,1.9-5Z"/>
      <path class="st5" d="M382.1,168.9l-65.6-24.7-1.9,5,65.6,24.7,1.9-5Z"/>
      <path class="st5" d="M375.2,187.2l-65.6-24.7-1.9,5,65.6,24.7,1.9-5Z"/>
      <path class="st3" d="M368.3,205.6l-65.6-24.7-1.9,5,65.6,24.7,1.9-5Z"/>
      <path class="st5" d="M361.4,224l-65.6-24.7-1.9,5,65.6,24.7,1.9-5Z"/>
      <path class="st5" d="M354.5,242.4l-65.6-24.7-1.9,5,65.6,24.7,1.9-5Z"/>
      <path class="st3" d="M214.4,234.2l-65.6-24.7-1.9,5,65.6,24.7,1.9-5Z"/>
      <path class="st5" d="M206.9,254.2l-65.6-24.7-1.9,5,65.6,24.7,1.9-5Z"/>
      <path class="st2" d="M316.2,284l-171.2-64.4-1.9,5,171.2,64.4,1.9-5Z"/>
      <path class="st3" d="M196.2,282.6l-65.6-24.7-1.9,5,65.6,24.7,1.9-5Z"/>
      <path class="st5" d="M188.7,302.6l-65.6-24.7-1.9,5,65.6,24.7,1.9-5Z"/>
      <path class="st8" d="M298.1,332.3l-171.2-64.4-1.9,5,171.2,64.4,1.9-5Z"/>
      <path class="st3" d="M178,330.9l-65.6-24.7-1.9,5,65.6,24.7,1.9-5Z"/>
      <path class="st5" d="M170.5,350.9l-65.6-24.7-1.9,5,65.6,24.7,1.9-5Z"/>
      <path class="st12" d="M249,369l-140.3-52.8-1.9,5,140.3,52.8,1.9-5Z"/>
      <path class="st5" d="M263.2,219.8l-119.4-45,39.2-104.3,6-3.5,9.6,3.6,105.7,39.8-41.1,109.3Z"/>
      <path class="st13" d="M154.9,82.3l40.9,15.4,16.1-42.7-57,27.3Z"/>
      <path class="st12" d="M156.2,81.7l39.1,14.7,15.4-40.9-54.5,26.2Z"/>
    </g>
  </g>
  <g class="st15">
    <g class="st10">
      <g>
        <path class="st1" d="M-37.3,401.2L121.6-27.8c2-5.5,8.3-8.3,13.8-6.3L501.9,101.9c5.5,2,8.3,8.3,6.3,13.8l-158.5,428.5c-2,5.5-8.3,8.3-13.8,6.3L-30.9,415c-5.5-2.4-8.3-8.3-6.3-13.8Z"/>
        <path class="st7" d="M-45.2,381.8L109.8-36.4c2-5.5,8.3-8.3,13.8-6.3L481,89.7c5.5,2,8.3,8.3,6.3,13.8l-154.6,418.2c-2,5.5-8.3,8.3-13.8,6.3L-38.9,395.6c-5.5-2-8.3-8.3-6.3-13.8Z"/>
        <path class="st1" d="M118.1,11.4l-2.9,7.8,95.6,35.4,2.9-7.8L118.1,11.4Z"/>
        <path class="st1" d="M111.1,30.2l-2.9,7.8,163.1,60.4,2.9-7.8L111.1,30.2Z"/>
        <path class="st7" d="M389.4,104.2l-21.5,58.2,67.8,25.1,21.5-58.2-67.8-25.1Z"/>
        <path class="st12" d="M456.9,129.2l-21.3,58.1-67.2-24.5,21.3-58.1,67.2,24.5ZM457.7,128.8l-68-25.3-22.1,58.9,68.4,25.3,21.7-58.9Z"/>
        <path class="st7" d="M321.1,79l-21.5,58.2,67.8,25.1,21.5-58.2-67.8-25.1Z"/>
        <path class="st12" d="M388.5,103.9l-21.3,58.1-67.2-24.5,21.3-58.1,67.2,24.5ZM389.7,103.5l-68.4-25.3-21.7,58.9,68.4,25.3,21.7-58.9Z"/>
        <path class="st7" d="M367.8,163.7l-21.5,58.2,67.8,25.1,21.5-58.2-67.8-25.1Z"/>
        <path class="st12" d="M434.7,188.1l-21.3,58.1-67.2-24.5,21.3-58.1,67.2,24.5ZM435.9,187.7l-68.4-25.3-22.1,59.3,68.4,25.3,22.1-59.3Z"/>
        <path class="st7" d="M299.1,138.1l-21.5,58.2,67.8,25.1,21.5-58.2-67.8-25.1Z"/>
        <path class="st12" d="M366.7,163.2l-21.3,58.1-67.2-24.5,21.3-58.1,67.2,24.5ZM367.5,162.4l-68.4-25.3-21.7,58.9,68.4,25.3,21.7-58.9Z"/>
        <path class="st7" d="M230.9,112.7l-21.5,58.2,67.8,25.1,21.5-58.2-67.8-25.1Z"/>
        <path class="st12" d="M298.3,137.9l-21.3,58.1-67.2-24.5,21.3-58.1,67.2,24.5ZM299.1,137.5l-68.4-25.3-21.7,58.9,68.4,25.3,21.7-58.9Z"/>
        <path class="st7" d="M162.6,87.2l-21.5,58.2,67.8,25.1,21.5-58.2-67.8-25.1Z"/>
        <path class="st12" d="M229.6,112.2l-21.3,58.1-67.2-24.5,21.3-58.1,67.2,24.5ZM230.8,112.2l-68.4-25.3-21.7,58.9,68.4,25.3,21.7-58.9Z"/>
        <path class="st7" d="M93.9,61.9l-21.5,58.2,67.8,25.1,21.5-58.2-67.8-25.1Z"/>
        <path class="st12" d="M161.2,86.9l-21.3,58.1-67.2-24.5,21.3-58.1,67.2,24.5ZM162.4,86.5l-68.4-25.3-22.1,59.3,68.4,25.3,22.1-59.3Z"/>
        <path class="st7" d="M345.8,222.5l-21.5,58.2,67.8,25.1,21.5-58.2-67.8-25.1Z"/>
        <path class="st12" d="M413,247.4l-21.3,58.1-67.2-24.5,21.3-58.1,67.2,24.5ZM413.8,247.4l-68.4-25.3-21.7,58.9,68.4,25.3,21.7-58.9Z"/>
        <path class="st7" d="M277.5,197l-21.5,58.2,67.8,25.1,21.5-58.2-67.8-25.1Z"/>
        <path class="st12" d="M345,222.1l-21.3,58.1-67.2-24.5,21.3-58.1,67.2,24.5ZM345.4,221.7l-68.4-25.3-21.7,58.9,68.4,25.3,21.7-58.9Z"/>
        <path class="st7" d="M208.7,171.8l-21.5,58.2,67.8,25.1,21.5-58.2-67.8-25.1Z"/>
        <path class="st12" d="M276.2,196.8l-21.3,58.1-67.2-24.5,21.3-58.1,67.2,24.5ZM277.4,196.4l-68.4-25.3-21.7,58.9,68.4,25.3,21.7-58.9Z"/>
        <path class="st7" d="M140.7,146.6l-21.5,58.2,67.8,25.1,21.5-58.2-67.8-25.1Z"/>
        <path class="st12" d="M207.8,171.5l-21.3,58.1-67.2-24.5,21.3-58.1,67.2,24.5ZM209,171.1l-68.4-25.3-22.1,59.3,68.4,25.3,22.1-59.3Z"/>
        <path class="st7" d="M72.4,121.2l-21.5,58.2,67.8,25.1,21.5-58.2-67.8-25.1Z"/>
        <path class="st12" d="M139.4,146.2l-21.3,58.1-67.2-24.5,21.3-58.1,67.2,24.5ZM140.2,145.8l-68.4-24.9-21.7,58.9,68.4,25.3,21.7-59.3Z"/>
        <path class="st7" d="M323.6,281.6l-21.5,58.2,67.8,25.1,21.5-58.2-67.8-25.1Z"/>
        <path class="st12" d="M391.2,306.7l-21.3,57.7-67.2-24.5,21.3-58.1,67.2,24.9ZM392,306.3l-68.4-25.3-21.7,58.9,68.4,25.3,21.7-58.9Z"/>
        <path class="st7" d="M255.6,256.2l-21.5,58.2,67.8,25.1,21.5-58.2-67.8-25.1Z"/>
        <path class="st12" d="M322.5,281l-21.3,58.1-67.2-24.5,21.3-58.1,67.2,24.5ZM323.6,281l-68.4-25.3-22.1,59.3,68.4,25.3,22.1-59.3Z"/>
        <path class="st7" d="M187.2,231.3l-21.5,58.2,67.8,25.1,21.5-58.2-67.8-25.1Z"/>
        <path class="st12" d="M254.5,256.1l-21.3,58.1-67.2-24.5,21.3-58.1,67.2,24.5ZM255.3,255.3l-68-25.3-22.1,59.3,68.8,25.3,21.3-59.3Z"/>
        <path class="st7" d="M118.5,205.7l-21.5,58.2,67.8,25.1,21.5-58.2-67.8-25.1Z"/>
        <path class="st12" d="M186.1,230.8l-21.3,58.1-67.2-24.5,21.3-58.1,67.2,24.5ZM187.3,230.4l-68.8-25.3-21.7,58.9,68,25.3,22.5-58.9Z"/>
        <path class="st7" d="M50.2,180.3l-21.5,58.2,67.8,25.1,21.5-58.2-67.8-25.1Z"/>
        <path class="st12" d="M117.7,205.5l-21.3,58.1-67.2-24.9,21.3-58.1,67.2,24.9ZM118.5,205.1l-68.4-25.3-21.7,58.9,68.4,25.3,21.7-58.9Z"/>
        <path class="st7" d="M302.2,340.9l-21.5,58.2,67.8,25.1,21.5-58.2-67.8-25.1Z"/>
        <path class="st12" d="M369.5,365.6l-21.3,58.1-67.2-24.5,21.3-58.1,67.2,24.5ZM370.3,365.2l-68.4-25.3-21.7,58.9,68.4,25.3,21.7-58.9Z"/>
        <path class="st7" d="M233.5,315.3l-21.5,58.2,67.8,25.1,21.5-58.2-67.8-25.1Z"/>
        <path class="st12" d="M300.7,340.7l-21.3,58.1-67.2-24.5,21.3-58.1,67.2,24.5ZM301.9,339.9l-68.8-24.9-21.7,58.9,68.4,25.3,22.1-59.3Z"/>
        <path class="st7" d="M165.2,290.1l-21.5,58.2,67.8,25.1,21.5-58.2-67.8-25.1Z"/>
        <path class="st12" d="M232.3,315l-21.3,58.1-67.2-24.5,21.3-58.1,67.2,24.5ZM233.5,315l-68.8-25.7-21.7,59.3,68.4,25.3,22.1-58.9Z"/>
        <path class="st7" d="M97,264.7l-21.5,58.2,67.8,25.1,21.5-58.2-67.8-25.1Z"/>
        <path class="st12" d="M164.3,289.7l-21.3,58.1-67.2-24.9,21.3-58.1,67.2,24.9ZM164.7,289.3l-68.4-25.3-21.3,58.9,68,25.7,21.7-59.3Z"/>
        <path class="st7" d="M28.3,239.1l-21.5,58.2,67.8,25.1,21.5-58.2-67.8-25.1Z"/>
        <path class="st12" d="M95.6,264.4l-21.3,58.1-67.2-24.5,21.3-58.1,67.2,24.5ZM96.7,264l-68.4-25.3-21.7,58.9,68.4,25.3,21.7-58.9Z"/>
        <path class="st7" d="M280.2,399.7l-21.5,58.2,67.8,25.1,21.5-58.2-67.8-25.1Z"/>
        <path class="st12" d="M347.4,424.9l-21.3,58.1-66.8-24.9,21.3-58.1,66.8,24.9ZM348.6,424.5l-68.4-25.3-22.1,58.9,68.4,25.3,22.1-58.9Z"/>
        <path class="st7" d="M211.7,374.8l-21.5,58.2,67.8,25.1,21.5-58.2-67.8-25.1Z"/>
        <path class="st12" d="M279,399.6l-21.3,58.1-67.2-24.5,21.3-58.1,67.2,24.5ZM280.2,399.2l-68.8-25.3-21.7,58.9,68.4,25.3,22.1-58.9Z"/>
        <path class="st7" d="M143.1,349.2l-21.5,58.2,67.8,25.1,21.5-58.2-67.8-25.1Z"/>
        <path class="st12" d="M210.6,374.3l-21.3,58.1-67.2-24.5,21.3-58.1,67.2,24.5ZM211.4,373.9l-68.4-25.3-21.7,58.9,68.4,25.3,21.7-58.9Z"/>
        <path class="st7" d="M74.8,323.8l-21.5,58.2,67.8,25.1,21.5-58.2-67.8-25.1Z"/>
        <path class="st12" d="M142.2,348.6l-21.3,58.1-67.2-24.5,21.3-58.1,67.2,24.5ZM143,348.6l-68-25.7-21.7,58.9,68.4,25.3,21.3-58.5Z"/>
        <path class="st7" d="M6.7,298.6l-21.5,58.2,67.8,25.1,21.5-58.2-67.8-25.1Z"/>
        <path class="st12" d="M73.8,323.3l-21.3,58.1-67.6-24.9,21.3-58.1,67.6,24.9ZM75,322.9l-68.4-25.3-21.7,58.9,68.4,25.3,21.7-58.9Z"/>
        <path class="st11" d="M99.9,78.6c2.4,0,4.3-1.9,4.3-4.3s-1.9-4.3-4.3-4.3-4.3,1.9-4.3,4.3,1.9,4.3,4.3,4.3Z"/>
        <path class="st6" d="M109.4,82.1c2.4,0,4.3-1.9,4.3-4.3s-1.9-4.3-4.3-4.3-4.3,1.9-4.3,4.3,1.9,4.3,4.3,4.3Z"/>
        <path class="st5" d="M214.9,186.1c2.4,0,4.3-1.9,4.3-4.3s-1.9-4.3-4.3-4.3-4.3,1.9-4.3,4.3,1.9,4.3,4.3,4.3Z"/>
        <path class="st5" d="M224.8,189.7c2.4,0,4.3-1.9,4.3-4.3s-1.9-4.3-4.3-4.3-4.3,1.9-4.3,4.3,1.9,4.3,4.3,4.3Z"/>
        <path class="st5" d="M374.6,180.2c2.4,0,4.3-1.9,4.3-4.3s-1.9-4.3-4.3-4.3-4.3,1.9-4.3,4.3,1.9,4.3,4.3,4.3Z"/>
        <path class="st5" d="M384.1,183.7c2.4,0,4.3-1.9,4.3-4.3s-1.9-4.3-4.3-4.3-4.3,1.9-4.3,4.3,1.9,4.3,4.3,4.3Z"/>
        <path class="st5" d="M393.6,187.3c2.4,0,4.3-1.9,4.3-4.3s-1.9-4.3-4.3-4.3-4.3,1.9-4.3,4.3,1.9,4.3,4.3,4.3Z"/>
        <path class="st5" d="M403.5,190.9c2.4,0,4.3-1.9,4.3-4.3s-1.9-4.3-4.3-4.3-4.3,1.9-4.3,4.3,1.9,4.3,4.3,4.3Z"/>
        <path class="st5" d="M330,299.6c2.4,0,4.3-1.9,4.3-4.3s-1.9-4.3-4.3-4.3-4.3,1.9-4.3,4.3,1.9,4.3,4.3,4.3Z"/>
        <path class="st5" d="M339.9,303.1c2.4,0,4.3-1.9,4.3-4.3s-1.9-4.3-4.3-4.3-4.3,1.9-4.3,4.3,1.9,4.3,4.3,4.3Z"/>
        <path class="st5" d="M349.3,306.7c2.4,0,4.3-1.9,4.3-4.3s-1.9-4.3-4.3-4.3-4.3,1.9-4.3,4.3,1.9,4.3,4.3,4.3Z"/>
        <path class="st5" d="M359.2,310.2c2.4,0,4.3-1.9,4.3-4.3s-1.9-4.3-4.3-4.3-4.3,1.9-4.3,4.3,1.9,4.3,4.3,4.3Z"/>
        <path class="st6" d="M146.5,160.8c2.4,0,4.3-1.9,4.3-4.3s-1.9-4.3-4.3-4.3-4.3,1.9-4.3,4.3,1.9,4.3,4.3,4.3Z"/>
        <path class="st11" d="M56.8,194c2.4,0,4.3-1.9,4.3-4.3s-1.9-4.3-4.3-4.3-4.3,1.9-4.3,4.3,1.9,4.3,4.3,4.3Z"/>
        <path class="st8" d="M80.9,337.1c2.4,0,4.3-1.9,4.3-4.3s-1.9-4.3-4.3-4.3-4.3,1.9-4.3,4.3,1.9,4.3,4.3,4.3Z"/>
      </g>
    </g>
  </g>
</svg>