<?xml version="1.0" encoding="UTF-8"?>
<svg id="Capa_1" xmlns="http://www.w3.org/2000/svg" version="1.1" viewBox="0 0 128 126">
  <!-- Generator: Adobe Illustrator 29.3.1, SVG Export Plug-In . SVG Version: 2.1.0 Build 151)  -->
  <defs>
    <style>
      .st0 {
        fill: #377dff;
      }

      .st1 {
        fill: #ffc107;
      }

      .st2 {
        fill: #fff;
      }

      .st3 {
        fill: #00c9a7;
      }

      .st4 {
        fill: #bdc5d1;
        isolation: isolate;
        opacity: .3;
      }

      .st5 {
        fill: #de4437;
      }

      .st6 {
        fill: #e7eaf3;
      }
    </style>
  </defs>
  <path class="st4" d="M2.6,105.3L42.8-3.2c.5-1.4,2.1-2.1,3.5-1.6l92.7,34.4c1.4.5,2.1,2.1,1.6,3.5l-40.1,108.4c-.5,1.4-2.1,2.1-3.5,1.6L4.2,108.8c-1.4-.6-2.1-2.1-1.6-3.5Z"/>
  <path class="st2" d="M.6,100.4L39.8-5.4c.5-1.4,2.1-2.1,3.5-1.6l90.4,33.5c1.4.5,2.1,2.1,1.6,3.5l-39.1,105.8c-.5,1.4-2.1,2.1-3.5,1.6L2.2,103.9c-1.4-.5-2.1-2.1-1.6-3.5Z"/>
  <path class="st4" d="M41.9,6.7l-.7,2,24.2,9,.7-2-24.2-9Z"/>
  <path class="st4" d="M40.1,11.5l-.7,2,41.3,15.3.7-2-41.3-15.3Z"/>
  <path class="st2" d="M110.5,30.2l-5.5,14.7,17.2,6.4,5.5-14.7-17.2-6.4Z"/>
  <path class="st6" d="M127.6,36.5l-5.4,14.7-17-6.2,5.4-14.7,17,6.2ZM127.8,36.4l-17.2-6.4-5.6,14.9,17.3,6.4,5.5-14.9Z"/>
  <path class="st2" d="M93.2,23.8l-5.5,14.7,17.2,6.4,5.5-14.7-17.2-6.4Z"/>
  <path class="st6" d="M110.3,30.1l-5.4,14.7-17-6.2,5.4-14.7,17,6.2ZM110.6,30l-17.3-6.4-5.5,14.9,17.3,6.4,5.5-14.9Z"/>
  <path class="st2" d="M105.1,45.2l-5.5,14.7,17.2,6.4,5.5-14.7-17.2-6.4Z"/>
  <path class="st6" d="M122,51.4l-5.4,14.7-17-6.2,5.4-14.7,17,6.2ZM122.3,51.3l-17.3-6.4-5.6,15,17.3,6.4,5.6-15Z"/>
  <path class="st2" d="M87.7,38.8l-5.5,14.7,17.2,6.4,5.5-14.7-17.2-6.4Z"/>
  <path class="st6" d="M104.8,45.1l-5.4,14.7-17-6.2,5.4-14.7,17,6.2ZM105,44.9l-17.3-6.4-5.5,14.9,17.3,6.4,5.5-14.9Z"/>
  <path class="st2" d="M70.4,32.3l-5.5,14.7,17.2,6.4,5.5-14.7-17.2-6.4Z"/>
  <path class="st6" d="M87.5,38.7l-5.4,14.7-17-6.2,5.4-14.7,17,6.2ZM87.7,38.6l-17.3-6.4-5.5,14.9,17.3,6.4,5.5-14.9Z"/>
  <path class="st2" d="M53.2,25.9l-5.5,14.7,17.2,6.4,5.5-14.7-17.2-6.4Z"/>
  <path class="st6" d="M70.1,32.2l-5.4,14.7-17-6.2,5.4-14.7,17,6.2ZM70.4,32.2l-17.3-6.4-5.5,14.9,17.3,6.4,5.5-14.9Z"/>
  <path class="st2" d="M35.8,19.5l-5.5,14.7,17.2,6.4,5.5-14.7-17.2-6.4Z"/>
  <path class="st6" d="M52.8,25.8l-5.4,14.7-17-6.2,5.4-14.7,17,6.2ZM53.1,25.7l-17.3-6.4-5.6,15,17.3,6.4,5.6-15Z"/>
  <path class="st2" d="M99.5,60.1l-5.5,14.7,17.2,6.4,5.5-14.7-17.2-6.4Z"/>
  <path class="st6" d="M116.5,66.4l-5.4,14.7-17-6.2,5.4-14.7,17,6.2ZM116.7,66.4l-17.3-6.4-5.5,14.9,17.3,6.4,5.5-14.9Z"/>
  <path class="st2" d="M82.2,53.7l-5.5,14.7,17.2,6.4,5.5-14.7-17.2-6.4Z"/>
  <path class="st6" d="M99.3,60l-5.4,14.7-17-6.2,5.4-14.7,17,6.2ZM99.4,59.9l-17.3-6.4-5.5,14.9,17.3,6.4,5.5-14.9Z"/>
  <path class="st2" d="M64.8,47.3l-5.5,14.7,17.2,6.4,5.5-14.7-17.2-6.4Z"/>
  <path class="st6" d="M81.9,53.6l-5.4,14.7-17-6.2,5.4-14.7,17,6.2ZM82.2,53.5l-17.3-6.4-5.5,14.9,17.3,6.4,5.5-14.9Z"/>
  <path class="st2" d="M47.6,40.9l-5.5,14.7,17.2,6.4,5.5-14.7-17.2-6.4Z"/>
  <path class="st6" d="M64.6,47.2l-5.4,14.7-17-6.2,5.4-14.7,17,6.2ZM64.9,47.1l-17.3-6.4-5.6,15,17.3,6.4,5.6-15Z"/>
  <path class="st2" d="M30.3,34.5l-5.5,14.7,17.2,6.4,5.5-14.7-17.2-6.4Z"/>
  <path class="st6" d="M47.3,40.8l-5.4,14.7-17-6.2,5.4-14.7,17,6.2ZM47.5,40.7l-17.3-6.3-5.5,14.9,17.3,6.4,5.5-15Z"/>
  <path class="st2" d="M93.9,75l-5.5,14.7,17.2,6.4,5.5-14.7-17.2-6.4Z"/>
  <path class="st6" d="M111,81.4l-5.4,14.6-17-6.2,5.4-14.7,17,6.3ZM111.2,81.3l-17.3-6.4-5.5,14.9,17.3,6.4,5.5-14.9Z"/>
  <path class="st2" d="M76.7,68.6l-5.5,14.7,17.2,6.4,5.5-14.7-17.2-6.4Z"/>
  <path class="st6" d="M93.6,74.9l-5.4,14.7-17-6.2,5.4-14.7,17,6.2ZM93.9,74.9l-17.3-6.4-5.6,15,17.3,6.4,5.6-15Z"/>
  <path class="st2" d="M59.4,62.3l-5.5,14.7,17.2,6.4,5.5-14.7-17.2-6.4Z"/>
  <path class="st6" d="M76.4,68.6l-5.4,14.7-17-6.2,5.4-14.7,17,6.2ZM76.6,68.4l-17.2-6.4-5.6,15,17.4,6.4,5.4-15Z"/>
  <path class="st2" d="M42,55.9l-5.5,14.7,17.2,6.4,5.5-14.7-17.2-6.4Z"/>
  <path class="st6" d="M59.1,62.2l-5.4,14.7-17-6.2,5.4-14.7,17,6.2ZM59.4,62.1l-17.4-6.4-5.5,14.9,17.2,6.4,5.7-14.9Z"/>
  <path class="st2" d="M24.7,49.4l-5.5,14.7,17.2,6.4,5.5-14.7-17.2-6.4Z"/>
  <path class="st6" d="M41.8,55.8l-5.4,14.7-17-6.3,5.4-14.7,17,6.3ZM42,55.7l-17.3-6.4-5.5,14.9,17.3,6.4,5.5-14.9Z"/>
  <path class="st2" d="M88.5,90.1l-5.5,14.7,17.2,6.4,5.5-14.7-17.2-6.4Z"/>
  <path class="st6" d="M105.5,96.3l-5.4,14.7-17-6.2,5.4-14.7,17,6.2ZM105.7,96.2l-17.3-6.4-5.5,14.9,17.3,6.4,5.5-14.9Z"/>
  <path class="st2" d="M71.1,83.6l-5.5,14.7,17.2,6.4,5.5-14.7-17.2-6.4Z"/>
  <path class="st6" d="M88.1,90l-5.4,14.7-17-6.2,5.4-14.7,17,6.2ZM88.4,89.8l-17.4-6.3-5.5,14.9,17.3,6.4,5.6-15Z"/>
  <path class="st2" d="M53.8,77.2l-5.5,14.7,17.2,6.4,5.5-14.7-17.2-6.4Z"/>
  <path class="st6" d="M70.8,83.5l-5.4,14.7-17-6.2,5.4-14.7,17,6.2ZM71.1,83.5l-17.4-6.5-5.5,15,17.3,6.4,5.6-14.9Z"/>
  <path class="st2" d="M36.6,70.8l-5.5,14.7,17.2,6.4,5.5-14.7-17.2-6.4Z"/>
  <path class="st6" d="M53.6,77.1l-5.4,14.7-17-6.3,5.4-14.7,17,6.3ZM53.7,77l-17.3-6.4-5.4,14.9,17.2,6.5,5.5-15Z"/>
  <path class="st2" d="M19.2,64.3l-5.5,14.7,17.2,6.4,5.5-14.7-17.2-6.4Z"/>
  <path class="st6" d="M36.2,70.7l-5.4,14.7-17-6.2,5.4-14.7,17,6.2ZM36.5,70.6l-17.3-6.4-5.5,14.9,17.3,6.4,5.5-14.9Z"/>
  <path class="st2" d="M82.9,104.9l-5.5,14.7,17.2,6.4,5.5-14.7-17.2-6.4Z"/>
  <path class="st6" d="M99.9,111.3l-5.4,14.7-16.9-6.3,5.4-14.7,16.9,6.3ZM100.2,111.2l-17.3-6.4-5.6,14.9,17.3,6.4,5.6-14.9Z"/>
  <path class="st2" d="M65.6,98.6l-5.5,14.7,17.2,6.4,5.5-14.7-17.2-6.4Z"/>
  <path class="st6" d="M82.6,104.9l-5.4,14.7-17-6.2,5.4-14.7,17,6.2ZM82.9,104.8l-17.4-6.4-5.5,14.9,17.3,6.4,5.6-14.9Z"/>
  <path class="st2" d="M48.2,92.2l-5.5,14.7,17.2,6.4,5.5-14.7-17.2-6.4Z"/>
  <path class="st6" d="M65.3,98.5l-5.4,14.7-17-6.2,5.4-14.7,17,6.2ZM65.5,98.4l-17.3-6.4-5.5,14.9,17.3,6.4,5.5-14.9Z"/>
  <path class="st2" d="M31,85.7l-5.5,14.7,17.2,6.4,5.5-14.7-17.2-6.4Z"/>
  <path class="st6" d="M48,92l-5.4,14.7-17-6.2,5.4-14.7,17,6.2ZM48.2,92l-17.2-6.5-5.5,14.9,17.3,6.4,5.4-14.8Z"/>
  <path class="st2" d="M13.7,79.4l-5.5,14.7,17.2,6.4,5.5-14.7-17.2-6.4Z"/>
  <path class="st6" d="M30.7,85.6l-5.4,14.7-17.1-6.3,5.4-14.7,17.1,6.3ZM31,85.5l-17.3-6.4-5.5,14.9,17.3,6.4,5.5-14.9Z"/>
  <path class="st5" d="M37.3,23.7c.6,0,1.1-.5,1.1-1.1s-.5-1.1-1.1-1.1-1.1.5-1.1,1.1.5,1.1,1.1,1.1Z"/>
  <path class="st1" d="M39.7,24.6c.6,0,1.1-.5,1.1-1.1s-.5-1.1-1.1-1.1-1.1.5-1.1,1.1.5,1.1,1.1,1.1Z"/>
  <path class="st0" d="M66.4,50.9c.6,0,1.1-.5,1.1-1.1s-.5-1.1-1.1-1.1-1.1.5-1.1,1.1.5,1.1,1.1,1.1Z"/>
  <path class="st0" d="M68.9,51.8c.6,0,1.1-.5,1.1-1.1s-.5-1.1-1.1-1.1-1.1.5-1.1,1.1.5,1.1,1.1,1.1Z"/>
  <path class="st0" d="M106.8,49.4c.6,0,1.1-.5,1.1-1.1s-.5-1.1-1.1-1.1-1.1.5-1.1,1.1.5,1.1,1.1,1.1Z"/>
  <path class="st0" d="M109.2,50.3c.6,0,1.1-.5,1.1-1.1s-.5-1.1-1.1-1.1-1.1.5-1.1,1.1.5,1.1,1.1,1.1Z"/>
  <path class="st0" d="M111.6,51.2c.6,0,1.1-.5,1.1-1.1s-.5-1.1-1.1-1.1-1.1.5-1.1,1.1.5,1.1,1.1,1.1Z"/>
  <path class="st0" d="M114.1,52.1c.6,0,1.1-.5,1.1-1.1s-.5-1.1-1.1-1.1-1.1.5-1.1,1.1.5,1.1,1.1,1.1Z"/>
  <path class="st0" d="M95.5,79.6c.6,0,1.1-.5,1.1-1.1s-.5-1.1-1.1-1.1-1.1.5-1.1,1.1.5,1.1,1.1,1.1Z"/>
  <path class="st0" d="M98,80.5c.6,0,1.1-.5,1.1-1.1s-.5-1.1-1.1-1.1-1.1.5-1.1,1.1.5,1.1,1.1,1.1Z"/>
  <path class="st0" d="M100.4,81.4c.6,0,1.1-.5,1.1-1.1s-.5-1.1-1.1-1.1-1.1.5-1.1,1.1.5,1.1,1.1,1.1Z"/>
  <path class="st0" d="M102.9,82.3c.6,0,1.1-.5,1.1-1.1s-.5-1.1-1.1-1.1-1.1.5-1.1,1.1.5,1.1,1.1,1.1Z"/>
  <path class="st1" d="M49.1,44.5c.6,0,1.1-.5,1.1-1.1s-.5-1.1-1.1-1.1-1.1.5-1.1,1.1.5,1.1,1.1,1.1Z"/>
  <path class="st5" d="M26.4,52.9c.6,0,1.1-.5,1.1-1.1s-.5-1.1-1.1-1.1-1.1.5-1.1,1.1.5,1.1,1.1,1.1Z"/>
  <path class="st3" d="M32.5,89.1c.6,0,1.1-.5,1.1-1.1s-.5-1.1-1.1-1.1-1.1.5-1.1,1.1.5,1.1,1.1,1.1Z"/>
</svg>