<?xml version="1.0" encoding="UTF-8"?>
<svg id="b9950e65-c983-427f-969f-411e60d4718f" xmlns="http://www.w3.org/2000/svg" version="1.1" xmlns:xlink="http://www.w3.org/1999/xlink" viewBox="0 0 488.6 488.6">
  <!-- Generator: Adobe Illustrator 29.3.1, SVG Export Plug-In . SVG Version: 2.1.0 Build 151)  -->
  <defs>
    <style>
      .st0 {
        fill: #8a6453;
      }

      .st1 {
        fill: #b7c0d8;
      }

      .st2 {
        isolation: isolate;
        opacity: 0;
      }

      .st2, .st3, .st4, .st5 {
        fill-rule: evenodd;
      }

      .st6 {
        fill: #ec5e72;
      }

      .st7 {
        fill: #fad994;
      }

      .st8 {
        fill: #ec6073;
      }

      .st9, .st3 {
        fill: #fff;
      }

      .st10 {
        fill: #dfe3ed;
      }

      .st11 {
        fill: #e8cf9b;
      }

      .st12 {
        fill: #7bb1fe;
      }

      .st13 {
        fill: #505a74;
      }

      .st4 {
        fill: #bdc5d1;
      }

      .st14 {
        fill: #eb6377;
      }

      .st15 {
        fill: #eca44e;
      }

      .st16 {
        fill: #f891a6;
      }

      .st17 {
        fill: #6e768a;
      }

      .st18 {
        fill: #fdba61;
      }

      .st19 {
        fill: #d1d8e7;
      }

      .st20 {
        fill: #535d77;
      }

      .st21 {
        fill: #d3d3d3;
      }

      .st22 {
        fill: #525c76;
      }

      .st23 {
        fill: #dee2ed;
      }

      .st24 {
        fill: #7dcb7f;
      }

      .st25 {
        fill: #5d96f9;
      }

      .st26 {
        fill: #566078;
      }

      .st27 {
        fill: none;
        stroke: #fff;
        stroke-linecap: round;
        stroke-miterlimit: 10;
        stroke-width: 3px;
      }

      .st28 {
        fill: #9ad69a;
      }

      .st29 {
        fill: #fefdfd;
      }

      .st30, .st5 {
        fill: #e7eaf3;
      }

      .st31 {
        fill: #eea143;
      }

      .st32 {
        fill: #3f4658;
      }

      .st33 {
        fill: #3a4254;
      }

      .st34 {
        fill: #b4bed6;
      }

      .st35 {
        fill: #e14655;
      }

      .st36 {
        fill: #f7f9fa;
      }
    </style>
  </defs>
  <circle id="SVGID" class="st36" cx="-284.7" cy="-65.9" r="244.3"/>
  <polygon class="st4" points="-481.6 -13.1 -422.5 -86.2 -146.2 -86.2 -87.6 -13.1 -87.6 97.5 -481.6 97.5 -481.6 -13.1"/>
  <g>
    <path class="st3" d="M-196.2-265h-227.7c-2.3,0-4.2,1.9-4.2,4.2V40.2c0,2.3,1.9,4.2,4.2,4.2H-145.3c2.3,0,4.2-1.9,4.2-4.2v-250.2l-55.1-55Z"/>
    <path class="st30" d="M-141.2-210l-55-55h-.2l8.5,55.6c1.2,7.9,8.6,13.3,16.4,12.1l30.3-4.6v-8.1h0Z"/>
    <path class="st5" d="M-199.2-117.4h-169.2c-3.5,0-6.3-2.8-6.3-6.3v-85.1c0-3.5,2.8-6.3,6.3-6.3h169.2c3.5,0,6.3,2.8,6.3,6.3v85.1c0,3.4-2.8,6.3-6.3,6.3Z"/>
    <path class="st2" d="M-199.2-117.4h-169.2c-3.5,0-6.3-2.8-6.3-6.3v-85.1c0-3.5,2.8-6.3,6.3-6.3h169.2c3.5,0,6.3,2.8,6.3,6.3v85.1c0,3.4-2.8,6.3-6.3,6.3Z"/>
    <path class="st5" d="M-202.3-78.1h-164.7c-1.3,0-2.4-1.1-2.4-2.4h0c0-1.3,1.1-2.4,2.4-2.4h164.8c1.3,0,2.4,1.1,2.4,2.4h0c0,1.3-1.1,2.4-2.5,2.4Z"/>
    <path class="st5" d="M-202.3-59.9h-164.7c-1.3,0-2.4-1.1-2.4-2.4h0c0-1.3,1.1-2.4,2.4-2.4h164.8c1.3,0,2.4,1.1,2.4,2.4h0c0,1.3-1.1,2.4-2.5,2.4Z"/>
    <path class="st5" d="M-249-41.6h-118c-1.3,0-2.4-1.1-2.4-2.4h0c0-1.3,1.1-2.4,2.4-2.4h118.1c1.3,0,2.4,1.1,2.4,2.4h0c0,1.3-1.1,2.4-2.5,2.4Z"/>
    <path class="st27" d="M-331.9-147c1.1-3.2,2.4-6.4,3.9-9.4,2.5-5.1,5.8-10.6,10.8-13.7,6.3-3.9,12.2-.3,16.6,4.7,3.5,4,6.8,8.4,11.7,10.7,3.8,1.8,8,2.1,12,1,6.4-1.7,11.8-6.3,16-11.2.5-.6,1-1.2,1.5-1.9,3.1-4.4,5.3-10.6,1.4-15.2-.7-.8-1.5-1.5-2.5-2.1-2.2-1.3-5-1.8-7.4-1.1-2.6.7-4.3,2.9-4.7,5.5-.1.4-.1.9-.1,1.3-.1,4.4,2.6,8.5,5.7,11.5,5.9,5.6,14.3,7.8,22.2,8.2,3.1.2,6.1,0,9.2-.3"/>
  </g>
  <path class="st5" d="M-183.5-13.1c-10.9,0-19.8,8.8-19.8,19.7s-8.8,19.7-19.7,19.7h-123.4c-10.9,0-19.7-8.8-19.7-19.7s-8.8-19.7-19.8-19.7h-96.3v120c0,15.7,12.8,28.5,28.5,28.5H-115.7c15.7,0,28.5-12.8,28.5-28.5V-13.1h-96.3Z"/>
  <g>
    <g>
      <path class="st21" d="M408.9,334.5c-6,1.8-11.9,5.5-18.8,4.8-15.6-1.5-36.1-22.6-48.4-32.6-.8-.7-1.4-2.1-3-2.2,2.9-16,8.7-36.6,9.8-52.1.5-7-7.3-21.2-11.7-27.5,1.9-9.8,8.2-32.3,4.3-40.5-1.9-4-30.2-27.9-36-32.9l-17.2-43.6c-1.8-1.8-4.4.6-5,.6-8.7,0-17.1.8-25.6,1.9-10.9-9.4-22.6-17.9-33.1-27.8-2.1-1.3-3.7,0-5.5.3s-4.5.8-5.3,1.5c-3.7,3.1-6.7,26.4-7.9,33.1-3.5-1.4-6.5-.7-10.1-.2s-5.8.9-8.5,2.2c-1.2,1.2-.8,3-1.2,4.4-3.5,12.2-5.2,27.8-7.6,40.7-23.1-15.6-40.2-33.8-50.1-60.1-8.9-23.6-14.5-67.1,9.1-84,5-3.6,9.5-2.8,13.3-4.4,10.6.8,19.9,5.4,28.1,12,1.5-7.4,4.3-19,8.2-25.4,3.5-5.8,17.6-15.4,24.5-13.9.1,0-.5,1.4,2.1,2,24.1,5.6,30.8,17.5,45.6,35.6,23.8-48,65.5-15.4,84.4,17.5,15.1,26.2,21.7,57.5,17.2,87.6,30.1,16.5,46.8,51.8,49.8,85.1.6,6.3-1.2,13.6-.6,18.9.6,5.5,8.3,18.6,10.2,25.6,6.7,24.5,7.2,53.5-10.7,73.3Z"/>
      <path class="st9" d="M210.9-11.2c11-5,23.7-10.4,35.2-13.9s11.9-4.6,16.7-4.6c19.3,0,29.4,12.6,42.2,24.4,23.4-6.8,36-18.9,60.1-5.6,37.9,20.9,58.3,82.9,50,124,28.3,11.3,46.5,49.9,49.7,78.9s-.8,18.6.2,25.4c.7,4.8,8,17.1,9.9,24.4,5.7,21.4,8.6,57.5-11,72.6-8.1,6.3-43.4,16.7-55.1,20.1,17.9-19.8,17.4-48.8,10.7-73.3-1.9-7.1-9.6-20.1-10.2-25.6-.6-5.2,1.2-12.6.6-18.9-3-33.3-19.7-68.6-49.8-85.1,4.6-30.1-2.1-61.4-17.2-87.6-18.9-32.9-60.7-65.5-84.4-17.5-14.8-18.1-21.4-30-45.6-35.6-2.6-.6-2-2-2.1-2Z"/>
      <path class="st12" d="M186.3,2.7c-3.9,6.4-6.6,18-8.2,25.4-8.2-6.6-17.5-11.2-28.1-12,11.6-4.8,23.7-10.5,36.2-13.4Z"/>
      <path class="st11" d="M341.6,306.7l-3.3-.6c.1-.5.2-1.1.3-1.6,1.5.2,2.1,1.6,3,2.2Z"/>
    </g>
    <g>
      <path class="st0" d="M282.8,108.5l15,36.5c-13.2-11.4-27.5-23.4-40.7-34.6,8.6-1.1,17-1.9,25.6-1.9Z"/>
      <path class="st11" d="M282.8,108.5c.6,0,3.2-2.4,5-.6l17.2,43.6c-2.4-2.1-5-4.5-7.2-6.4l-15-36.5Z"/>
      <g>
        <path class="st19" d="M218.5,82.9c-.9,3.9,1.6,4.6,3.8,6.7,9.9,9.1,20.8,17.4,30.7,25.8,27,23.1,53.8,46.5,80.4,69.9,2.2,3.2,2.6,6,2.3,9.8-1.2,16.7-8.3,35.9-10,52.9-3.6-.4-8.8-.4-13.3-.8.6-3.5-1.1-4.8-3.2-7.1-12.9-13.8-37.8-33.7-53.2-46s-8.9-7.5-10-6.6c-.4,2.3-1.3,4.7-1,7.1.8,6.8,50.8,42.6,57.3,52.4-7.1-.7-17.7-3.9-21.8-4.2-1.1,0-1.4,2.8-2.7,2.9-2.5.1-13.3-2-15.9-3-4.9-1.9-5.7-8.5-8.5-13.4,6.3,1.4,10.2,9.6,15.6,11.4,4.1,1.4,4-5.5,3.2-7.9-1.4-3.8-26.1-22.7-31.3-26.1-3.9-7.2-7.1-15.1-11-22.3l9.1,5.1c4.9-11.8-12.4-19.7-20.4-25.7-5.5-10.4-10.5-21.3-16-31.7l2.8-14.7c1.3-6.8,4.2-30.1,7.9-33.1.8-.7,3.9-1.2,5.3-1.5ZM268.5,166.5v-9.2s-49.3-42.2-49.3-42.2l-.4,10.9c14.9,10.4,29.3,28.4,43.9,38.1,1.9,1.2,3.4,2.4,5.8,2.4ZM235.3,163.6l.4-10.9-20.5-16.5c-6.1,13.2,12.3,19.2,20.1,27.4ZM319.1,211.4l.4-10.9-42.5-34.1v9.2s42.1,35.7,42.1,35.7ZM284.9,205l-.5-10.3c-5.5-3.2-35.7-33.2-39-30.8v9.3c0,0,39.5,31.8,39.5,31.8ZM315.4,230.9c7.6-7.8-17.8-24.8-19.1-23.8-7.8,7.8,17.4,25.1,19.1,23.8Z"/>
        <path class="st23" d="M257.1,110.4c13.2,11.3,27.4,23.2,40.7,34.6,2.2,1.9,4.8,4.4,7.2,6.4,5.8,5,34.1,28.9,36,32.9,3.9,8.2-2.4,30.7-4.3,40.5s-1.6,2.6-1.9,4.1.2,1.7.7,2.4l-3.4,17.9c-2.2-.3-4.3-1-6.5-1.2,1.7-17,8.8-36.2,10-52.9.3-3.8-.1-6.6-2.3-9.8-26.6-23.4-53.4-46.8-80.4-69.9-9.8-8.4-20.8-16.7-30.7-25.8-2.2-2-4.7-2.8-3.8-6.7,1.8-.3,3.5-1.6,5.5-.3,10.5,9.9,22.2,18.5,33.1,27.8Z"/>
        <path class="st25" d="M312.3,247.2c-2.7-.3-6.3.1-10.1-.2-6.4-9.7-56.5-45.6-57.3-52.4-.3-2.4.6-4.8,1-7.1,1.1-.9,8.4,5.3,10,6.6,15.3,12.3,40.2,32.2,53.2,46,2.1,2.2,3.8,3.6,3.2,7.1Z"/>
        <path class="st25" d="M268.5,166.5c-2.4,0-3.9-1.2-5.8-2.4-14.6-9.7-29-27.8-43.9-38.1l.4-10.9,49.4,42.2v9.2Z"/>
        <polygon class="st14" points="319.1 211.4 276.9 175.6 277 166.4 319.5 200.5 319.1 211.4"/>
        <path class="st15" d="M284.9,205l-39.5-31.8v-9.3c3.4-2.4,33.6,27.6,39.1,30.8l.5,10.3Z"/>
        <path class="st15" d="M240.7,206.8c5.2,3.5,29.9,22.3,31.3,26.1.9,2.3.9,9.2-3.2,7.9-5.3-1.8-9.3-9.9-15.6-11.4-4.3-7.5-8.5-15-12.6-22.6Z"/>
        <path class="st14" d="M235.3,163.6c-7.8-8.2-26.3-14.2-20.1-27.4l20.5,16.5-.4,10.9Z"/>
        <path class="st24" d="M315.4,230.9c-1.8,1.2-26.9-16-19.1-23.8,1.4-1,26.8,16,19.1,23.8Z"/>
        <path class="st28" d="M218.4,163.8c8,6.1,25.3,13.9,20.4,25.7l-9.1-5.1c-3.7-6.9-7.6-13.8-11.3-20.7Z"/>
      </g>
      <g>
        <path class="st18" d="M338.1,253.7c5.1,0,2.7,3.1,2.2,6.2-2,13.1-6.9,27.2-5.9,40.3-4.2,23.3-8.9,46.7-13.2,70l-157.2-130.9c4.3-24.9,8.9-49.9,13.8-74.7,2.5-12.9,4.1-28.5,7.6-40.7l5.7,5.3,60.9,115.9c2,1.8,4.6,1.9,7.1,2.2,22.3,3,56.8,6.3,78.9,6.4Z"/>
        <path class="st31" d="M338.7,304.4c0,.5-.2,1.1-.3,1.6-3.8,20.3-7.7,40.7-11.5,61.1l-5.7,3.1c4.2-23.3,9-46.7,13.2-70,2.7-15,7.5-32.5,8.9-47.2,1.8-.1,3.5,0,5.2-.7-1.1,15.5-6.9,36.1-9.8,52.1Z"/>
        <path class="st7" d="M195.1,117.3c-.8,6.4,5.2,10.8,7.3,14.9,5.5,10.4,10.4,21.2,16,31.7s7.6,13.8,11.3,20.7c3.9,7.2,7.1,15,11,22.3s8.3,15.1,12.6,22.6c2.8,4.9,3.6,11.5,8.5,13.4,2.6,1,13.4,3.2,15.9,3s1.6-3,2.7-2.9c4,.3,14.7,3.5,21.8,4.2s7.4,0,10.1.2c4.6.4,9.8.5,13.3.8s4.3.9,6.5,1.2c3.8.6,7.6,1.5,11.4,2.1,0,.5-.3,1.1-.3,1.6-1.8.1-4.5.7-5.2.7-22.2,0-56.7-3.4-78.9-6.4-2.5-.3-5.1-.4-7.1-2.2l-60.9-115.9-5.7-5.3c.4-1.4,0-3.2,1.2-4.4,2.7-1.3,5.5-1.8,8.5-2.2Z"/>
        <path class="st11" d="M348.5,252.3c-1.7.8-3.4.6-5.2.7,0-.5.3-1.1.3-1.6.1-6.1-4.4-15-8-20.1-.5-.7-.9-1.5-.7-2.4.3-1.6,1.7-3,1.9-4.1,4.4,6.2,12.2,20.5,11.7,27.5Z"/>
        <path class="st0" d="M205.2,117.5l-2.8,14.7c-2.1-4-8.1-8.5-7.3-14.9,3.5-.5,6.5-1.2,10.1.2Z"/>
        <path class="st15" d="M343.3,253c-1.4,14.7-6.2,32.3-8.9,47.2-1-13.1,3.9-27.1,5.9-40.3.5-3.2,2.9-6.2-2.2-6.2.7,0,3.4-.6,5.2-.7Z"/>
        <path class="st0" d="M343.6,251.4c-3.8-.6-7.6-1.6-11.4-2.1l3.4-17.9c3.6,5,8.1,14,8,20.1Z"/>
      </g>
    </g>
    <g>
      <g>
        <path class="st32" d="M153.5,175.6l25.4,22.9c-.6,3.3-1.2,6.7-1.9,10l-23.6-18.7-24.8,131.8,168.1,144.7,25.1-133.6-27.9-23.4,1.9-10c9.5,9.5,31.7,21,33.6,34.8l-14.8,78.7c-3,16.2-6.1,32.5-9.2,48.7l-2.6,13.7c-1,.4-2,1.5-3,2l-177.2-151c-1.5-4.3-2-8-1.6-12.5,4.2-43.4,21.8-89.5,26.4-133.5.7-4.8,3.4-3.7,6.1-4.6Z"/>
        <path class="st13" d="M302.9,475.2l2.6-13.7c2.3-.9,2.1-4.5,2.6-6.6,2.8-13.9,5.2-27.9,7.8-41.9,4.2-22.3,12.9-54.2,14.3-75.7.1-2-.7-2.5-.8-3.2-1.8-13.7-24-25.3-33.6-34.8l1.2-6.2,34.5,29.2,3.3,8.6-27.8,143.3c-1.4,1.3-3.2.6-4.2,1Z"/>
        <path class="st26" d="M269.3,268.5c-.4,2.1-.8,4.2-1.2,6.2l-61.4-51.6,1.2-6.2,61.4,51.6Z"/>
        <path class="st26" d="M180.2,192.3c-.4,2.1-.8,4.2-1.2,6.2l-25.4-22.9c1-.3,2-1.8,3.8-1.7,4.8.2,18.1,14.9,22.8,18.3Z"/>
        <path class="st29" d="M177.1,208.5c-.5,2.5-.9,5-1.4,7.5-4.1-2-6-4.7-11-3.4-.9,1.4.7,2.4.8,2.7,2.3,13.4,8.2,35.6,12.6,48.5.4,1.2.5,2.5,1.7,3.2,2.8,1.2,28-15,32.3-17.8-1.6-1.1-8.1-8.5-8.7-8.7l1.4-7.5,61.4,51.6c-.6,2.9-.9,5.9-1.6,8.7-3.1-3-8.6-8.1-10-1.9l13.6,51.6c1.3.6,2.4.4,3.8,0,3.9-1,18.8-10.3,23.2-13.1,2-1.3,5.3-1.7,6.1-4.7,0-1-7.3-7.1-8.9-7.5l1.6-8.7,27.9,23.4-25.1,133.6-168.1-144.7,24.8-131.8,23.6,18.7Z"/>
        <path class="st17" d="M315.8,413l-1.2-.2,14.8-78.7c0,.7.9,1.3.8,3.2-1.4,21.5-10.1,53.4-14.3,75.7Z"/>
        <path class="st26" d="M305.4,461.5c3-16.2,6.1-32.5,9.2-48.7l1.2.2c-2.6,13.9-5.1,28-7.8,41.9-.4,2.1-.2,5.7-2.6,6.6Z"/>
        <g>
          <path class="st8" d="M209.5,187.5c-2.8,18.1-9,35.3-10.1,53.7.2.4,2.9-1,4-.5s7,7.6,8.7,8.7c-4.2,2.8-29.5,19-32.3,17.8-1.2-.7-1.3-2-1.7-3.2-4.4-12.9-10.3-35.2-12.6-48.5l9,6.9c.5-2.1.7-4.2,1.2-6.2s.9-5,1.4-7.5,1.2-6.7,1.9-10,.8-4.2,1.2-6.2c1.3-6.4,2.5-20,4.7-25l24.7,20.1Z"/>
          <path class="st35" d="M213.5,186.9c-.3,8.2-4,21.2-5.6,30l-1.2,6.2-1.9,10-1.4,7.5c-1-.4-3.8,1-4,.5,1.1-18.4,7.3-35.6,10.1-53.7l4-.5Z"/>
          <path class="st16" d="M213.5,186.9l-4,.5-24.7-20.1c.9-2.2,3.4-3.3,5.6-2.3,1.5.7,20.2,16.2,21.7,17.9,1.5,1.7,1.4,1.8,1.3,4Z"/>
          <path class="st16" d="M175.7,216c-.5,2.1-.7,4.2-1.2,6.2l-9-6.9c0-.4-1.6-1.3-.8-2.7,5-1.4,7,1.3,11,3.4Z"/>
        </g>
        <path class="st33" d="M268.1,274.8c-.7,3.3-1.2,6.7-1.9,10l-61.4-51.6,1.9-10,61.4,51.6Z"/>
        <g>
          <path class="st6" d="M276.2,245.2l21.1,17.1c-.5,9.4-5.3,19.4-3.9,28.8-1.8,9.1-3.5,18.3-5.2,27.5,0,0-1,.2-1,.5l.6,1.3c2.5,3.2,9.5,4.2,7.3,9.8-4.3,2.8-19.2,12.1-23.2,13.1-1.4.3-2.5.6-3.8,0l-13.6-51.6,8.4,6.8c1.2.3,1.3-3.6,1.6-4.9.7-2.9,1.1-5.9,1.6-8.7s1.2-6.7,1.9-10c.4-2.1.7-4.2,1.2-6.2,1.9-9.4,1.4-15.8,7-23.3Z"/>
          <path class="st35" d="M302.6,263.1c-.8,9.2-3.9,20.6-5.6,30l-1.2,6.2-1.9,10-1.6,8.7c-1.1-.3-2.8.2-4,.5,1.7-9.1,3.4-18.4,5.2-27.5,1.5-7.6,2.4-17.4,4.5-24.4.8-2.8,1.2-4.2,4.6-3.6Z"/>
          <path class="st16" d="M276.2,245.2c.4-.6.2-2.7.7-3.7,3.7-2.1,21.2,17.2,25.9,19.3.4.8-.2,1.5-.2,2.3-3.4-.7-3.8.8-4.6,3.6-2.1,7-3,16.9-4.5,24.4-1.4-9.4,3.4-19.4,3.9-28.8l-21.1-17.1Z"/>
          <path class="st16" d="M292.3,318.1c1.6.5,8.9,6.5,8.9,7.5-.7,2.9-4.1,3.4-6.1,4.7,2.2-5.7-4.8-6.6-7.3-9.8l-.6-1.3c0-.3,1-.4,1-.5,1.2-.4,2.8-.9,4-.5Z"/>
          <path class="st16" d="M264.6,293.5c-.3,1.3-.4,5.1-1.6,4.9l-8.4-6.8c1.4-6.2,6.9-1.1,10,1.9Z"/>
        </g>
      </g>
      <g>
        <path class="st10" d="M122.7,326.3l177.2,151c.2,2.7.4,5-.2,7.7l-141.9,49.5-7.3-1.4c-61.1-49.5-119.1-103.1-180.2-152.7.3-1.8.4-3.2,1.6-4.8,2-2.7,54.3-20.6,62.4-23.5,25.7-9.2,51.6-17.7,77.2-27.2l11.3,1.4ZM114.8,340.4c-1.9,1.7,7.7,10,9.3,10.6,3,1.2,5.9.4,8.3-1.5-5-5.6-9.8-12.3-17.7-9.1ZM98.2,346.3c-.7,1.7-.2,2.1.7,3.3s14.2,12.3,15.1,12.6c2.3.8,12.2-2,12.8-3.5s-1.2-2.9-2.2-3.9c-2.1-2-12.2-10.6-14-11.2-3.4-1.2-8.5,3.6-12.5,2.7ZM147.8,364.6c2.2-2.1-9.3-12.2-12.5-11.2-9.3,3.1.6,7.4,4.5,10.8l8,.4ZM120.7,371.2c-7.7-3.4-19.9-19.4-26.6-21.7-3.4-1.1-8.5,3.6-12.5,2.7-1.3,2.7.2,2.1,1,3.1,2.4,2.7,21.7,19.6,23.9,20.7,4.1,1.9,12.9,0,14.1-4.8ZM119.9,368.4c4.2.6,8.4,8.1,11.8,8.4s11.9-3.8,12-4.6c-2.9-3.1-7.6-8.7-11.8-9.4-2.4-.4-13.2,3-12,5.6ZM165.1,375.7c-7.3-3.5-8.7-10.9-18-7.3-1.2,2.7.2,2.1,1,3.1,4.2,4.7,13,12.9,17,4.1ZM88,366.3c2.5-2.3-8.7-9.4-10.3-11l-12.7,2.8c-.6.5-.5,1.7.3,2.7s9.1,7.7,10.3,8.1c4.2,1.5,8-3.3,12.5-2.6ZM159,387.4c2-1.9-7.3-9.9-9.3-10.6-4.1-1.4-8.4,2.8-12.5,2.6-2.3,2.2,7.7,9,9.3,10.6l12.5-2.7ZM47.9,366.5c12.7,5.8,24.1,30.5,39.2,18.3.8-1.9-1.2-2.9-2.2-3.9-2.8-2.6-21.1-18.6-22.8-19.3-4.9-2-8.2,2.3-12.9,2.5l-1.3,2.4ZM180.5,389c-6.2-3-8.5-9.6-16.6-7v3.9c5.9,3.1,8.1,9.2,16,6.7l.6-3.5ZM104,377.1c-3.3-1-8.7-8.4-11.8-8.4-1.5,0-12.4,4.2-11.2,6.7,7.7,5.7,15.8,12.4,22.9,1.8ZM136.8,388.4c2.2-2.1-8.1-9.8-10.3-11l-12.7,2.8c-1.3,2.8.2,2.1,1.1,3.1,9,9.1,9.9,8.4,21.9,5.1ZM176.3,398.5c-4.2-.6-8.4-8.1-11.8-8.4-1.6-.2-11.9,3.8-12,4.6,2.9,3.1,7.6,8.7,11.8,9.4,2.4.4,13.2-3,12-5.6ZM196.9,406.2c1.9-1.8-7.9-9.9-9.3-10.6-2.9-1.3-5.9-.3-8.3,1.5l10.7,10.2,7-1.1ZM96.7,388.6l11.9,8.7,11.9-4.8c-6.2-8.1-12.9-12.2-22.5-6.3-1.1.7-1.7,1.8-1.3,2.4ZM130.7,393.8c-2.2,2,7.9,10.3,10.3,11,3.6.9,8.3-2,11.6-3.6-5.7-10.7-11.1-11.4-21.9-7.3ZM191.2,415.5c2.5-2.4-8.1-10.4-10.3-11s-11.1,2.7-11.6,3.7c-1.2,2.6,8.6,8.5,10.3,10.3l11.6-3ZM153.1,439.4l-58-49.2c-4.3-2.4-9.8,0-13.5,2.8-.8,2,1.2,2.8,2.3,3.9,16.6,16.6,38.2,30.7,55,47.3,2.5,2.4,15.3-2.1,14.1-4.8ZM212.7,417.1c-1-2.7-12.4-9.8-16.5-7.2-2.5,2.4,11.3,14.5,16,10.7.3-1.1.9-2.4.5-3.5ZM114,399.7c-2.2,2,7.9,10.3,10.3,11,3.6.9,8.3-2,11.6-3.6-5.7-10.7-11.1-11.4-21.9-7.3ZM156.6,405.3c-2.1,0-9.8,2.5-9.7,5.1,7.5,8.5,12.3,11.4,22.5,4.2-2.5-3.7-8.3-9.2-12.8-9.3ZM208.6,426.5c-8.8-7.4-12.9-11.5-23.8-3.9,7.6,8,11.7,11.9,22.5,6.3l1.3-2.4ZM229.1,434.2c1.1-2.6-.8-3.1-2.2-4.5-4.4-4.6-9.4-9.4-15.5-4.6,4.8,5.5,9.6,11.1,17.7,9.1ZM130.9,413.3c-3.1,3.1,6.4,9.9,9.1,10.7,4.2,1.2,9.4-.9,12.8-3.4.2-1-7.8-8.4-9.4-8.9s-12,1.2-12.4,1.6ZM162.9,421.8c-2,1.9,8.3,10.5,10.3,11,2.9.7,8.7-2.5,11.6-3.7-4.9-10.5-11.7-11.7-21.9-7.3ZM123,454.2c.9-1.1.9-3.3-.3-4.4l-58.7-50.2c-10.5-4.6-28.8,7.4-39.8,9.8l.6,4,59.7,50.6c2.7,1,5.2,1.3,8.1.9,2.2-.3,29.3-9.3,30.3-10.5ZM224,439.9c-4.8-2-6.4-7.1-11.9-7.6s-12.1,3.2-10.9,5.7l11.8,8.4,10.3-3.1.7-3.5ZM233.5,436.6c-1.2,0-4.8,1.2-5.2,2.1-1.2,2.6,13.5,15,16.5,8.2,1-2.2-8.8-10.2-11.3-10.3ZM146.3,427.7c-2.5,2.4,8.6,9.3,10.3,11l11.6-3.7c-4.2-10.6-12.2-11.6-21.9-7.3ZM202,440.8l-11.8-8.4-9.6,3c-4.8,2.5,6.9,10.8,10.6,11.1s12.1-3.2,10.9-5.7ZM240.3,457c2.2-2.1-8.1-9.8-10.3-11l-12.7,2.8c-.6.5-.5,1.7.3,2.7s9.1,7.7,10.3,8.1c4.2,1.5,8-3.3,12.5-2.6ZM248.9,451.1c-1.8,0-3.8.9-5.2,2,4.7,4.4,11.2,13.7,18,7.3-3.1-4-7.5-9.3-12.8-9.3ZM185.4,446.7l-11.8-8.4-9.6,3c-4.8,2.5,6.9,10.8,10.6,11.1s12.1-3.2,10.9-5.7ZM217.6,454.1c-.3-.6-10.1-7.2-10.8-7.3-2-.3-13.4,2.6-12.1,5.5,3.6,1.3,8.2,8.1,11.8,8.4,2.5.2,12.7-2.9,11.1-6.6ZM245.9,459.6c-2.2-.3-9.9,2.9-12.1,4.6-.3,1.9,18,15.7,20.6,18.5l12.9-4.4c-3-2.9-19.1-18.4-21.5-18.7ZM168.7,452.6l-11.8-8.4-9.7,3c-4.8,2.5,6.9,10.8,10.6,11.1s12-3.2,10.9-5.7ZM260.2,468.5c3.1,1.7,13.9,13.2,16.9,6.4,1.6-3.6-14.6-16.4-16.9-6.4ZM212,463.4c-.9,2.2.5,3.3,1.8,4.8,5.9,7,17,12.9,23.3,20.1l13.7-4-26.3-23.5-12.4,2.6ZM161.4,464.2c9.6,7.3,12,11.5,23.8,3.8-3-2.7-7.9-8.9-11.7-9.3s-13.5,2.7-12.1,5.5ZM195.4,469.3c-2.3,2.3,7.3,9.9,9.3,10.6,2,.7,11.9-1.8,12.6-3.3,1.2-2.6-8.6-8.5-10.3-10.3l-11.6,3ZM178.7,475.2c-2,1.9,7.3,9.9,9.3,10.6s11.9-1.8,12.6-3.3c1.1-2.5-7.8-8.2-9.4-10l-12.5,2.7ZM203.4,486.6c-1,0-9.3,3.3-9.4,3.8l10.6,10.1,12.9-4.4c-2.8-4.1-8.9-9.8-14-9.5Z"/>
        <path class="st1" d="M299.7,485c-1.1,5-1.6,5.5-6.2,7.7-43.2,12.2-86.8,34.3-129.7,45.9-5,1.4-7.8,3-13.3,1.1L-28.8,387.1c-1.6-1.8-1.4-4.5-1-6.7,61.1,49.6,119.1,103.2,180.2,152.7l7.3,1.4,141.9-49.5Z"/>
        <path class="st34" d="M123,454.2c-1,1.2-28.1,10.2-30.3,10.5-2.9.4-5.4.1-8.1-.9l-59.7-50.6-.6-4c10.9-2.3,29.2-14.4,39.8-9.8l58.7,50.2c1.2,1.1,1.2,3.3.3,4.4Z"/>
        <path class="st13" d="M153.1,439.4c1.2,2.7-11.6,7.2-14.1,4.8-16.9-16.6-38.5-30.7-55-47.3s-3.1-1.9-2.3-3.9c3.7-2.7,9.2-5.2,13.5-2.8l58,49.2Z"/>
        <path class="st22" d="M212,463.4l12.4-2.6,26.3,23.5-13.7,4c-6.3-7.2-17.3-13.1-23.3-20.1-1.2-1.5-2.6-2.6-1.8-4.8Z"/>
        <path class="st13" d="M47.9,366.5l1.3-2.4c4.8-.1,8-4.5,12.9-2.5,1.7.7,20,16.7,22.8,19.3s3,2,2.2,3.9c-15.1,12.1-26.5-12.5-39.2-18.3Z"/>
        <path class="st13" d="M120.7,371.2c-1.3,4.8-10.1,6.7-14.1,4.8s-21.6-18-23.9-20.7c-.9-1-2.3-.4-1-3.1,4,.9,9.1-3.8,12.5-2.7,6.7,2.3,18.9,18.3,26.6,21.7Z"/>
        <path class="st22" d="M245.9,459.6c2.4.3,18.4,15.8,21.5,18.7l-12.9,4.4c-2.6-2.8-21-16.6-20.6-18.5,2.2-1.7,9.8-4.9,12.1-4.6Z"/>
        <path class="st22" d="M98.2,346.3c4,.9,9-3.8,12.5-2.7s11.9,9.3,14,11.2,3.1,2.1,2.2,3.9-10.5,4.2-12.8,3.5-14.4-11.6-15.1-12.6-1.4-1.6-.7-3.3Z"/>
        <path class="st20" d="M240.3,457c-4.5-.7-8.3,4.1-12.5,2.6s-9.5-7-10.3-8.1-.9-2.3-.3-2.7l12.7-2.8c2.2,1.2,12.6,8.9,10.3,11Z"/>
        <path class="st22" d="M119.9,368.4c-1.2-2.6,9.6-6,12-5.6,4.2.7,9,6.3,11.8,9.4-.1.7-10.5,4.7-12,4.6-3.4-.4-7.5-7.8-11.8-8.4Z"/>
        <path class="st22" d="M88,366.3c-4.5-.7-8.3,4.1-12.5,2.6s-9.5-7-10.3-8.1-.9-2.3-.3-2.7l12.7-2.8c1.6,1.6,12.8,8.7,10.3,11Z"/>
        <path class="st20" d="M136.8,388.4c-12,3.4-13,4-21.9-5.1-.9-1-2.4-.2-1.1-3.1l12.7-2.8c2.2,1.2,12.5,8.9,10.3,11Z"/>
        <path class="st20" d="M176.3,398.5c1.2,2.6-9.6,6-12,5.6-4.2-.7-9-6.3-11.8-9.4.1-.7,10.5-4.7,12-4.6,3.4.4,7.5,7.8,11.8,8.4Z"/>
        <path class="st22" d="M96.7,388.6c-.4-.7.2-1.8,1.3-2.4,9.7-5.9,16.3-1.8,22.5,6.3l-11.9,4.8-11.9-8.7Z"/>
        <path class="st20" d="M168.7,452.6c1.1,2.5-8.6,5.9-10.9,5.7-3.6-.3-15.4-8.6-10.6-11.1l9.7-3,11.8,8.4Z"/>
        <path class="st20" d="M130.7,393.8c10.8-4.1,16.2-3.3,21.9,7.3-3.2,1.6-7.9,4.6-11.6,3.6-2.5-.6-12.5-8.9-10.3-11Z"/>
        <path class="st20" d="M208.6,426.5l-1.3,2.4c-10.9,5.6-14.9,1.8-22.5-6.3,10.9-7.7,15-3.5,23.8,3.9Z"/>
        <path class="st22" d="M162.9,421.8c10.2-4.4,17-3.2,21.9,7.3-2.9,1.2-8.6,4.4-11.6,3.7-2-.5-12.3-9.1-10.3-11Z"/>
        <path class="st22" d="M191.2,415.5l-11.6,3c-1.8-1.8-11.5-7.7-10.3-10.3s9.7-4.1,11.6-3.7,12.8,8.6,10.3,11Z"/>
        <path class="st22" d="M224,439.9l-.7,3.5-10.3,3.1-11.8-8.4c-1.2-2.5,8.6-5.9,10.9-5.7,5.5.4,7.1,5.5,11.9,7.6Z"/>
        <path class="st20" d="M146.3,427.7c9.7-4.3,17.7-3.3,21.9,7.3l-11.6,3.7c-1.7-1.7-12.8-8.6-10.3-11Z"/>
        <path class="st20" d="M202,440.8c1.2,2.5-8.6,5.9-10.9,5.7-3.6-.3-15.4-8.6-10.6-11.1l9.6-3,11.8,8.4Z"/>
        <path class="st20" d="M185.4,446.7c1.2,2.5-8.6,5.9-10.9,5.7-3.6-.3-15.4-8.6-10.6-11.1l9.6-3,11.8,8.4Z"/>
        <path class="st22" d="M217.6,454.1c1.6,3.7-8.6,6.9-11.1,6.6-3.5-.4-8.1-7.2-11.8-8.4-1.3-2.8,10.1-5.7,12.1-5.5s10.5,6.7,10.8,7.3Z"/>
        <path class="st20" d="M161.4,464.2c-1.4-2.8,10-5.7,12.1-5.5,3.8.4,8.8,6.6,11.7,9.3-11.9,7.6-14.2,3.5-23.8-3.8Z"/>
        <path class="st22" d="M114,399.7c10.8-4.1,16.2-3.3,21.9,7.3-3.2,1.6-7.9,4.6-11.6,3.6-2.5-.6-12.5-8.9-10.3-11Z"/>
        <path class="st22" d="M104,377.1c-7.1,10.6-15.2,4-22.9-1.8-1.2-2.5,9.6-6.7,11.2-6.7,3,0,8.4,7.4,11.8,8.4Z"/>
        <path class="st22" d="M203.4,486.6c5.2-.3,11.2,5.4,14,9.5l-12.9,4.4-10.6-10.1c.1-.5,8.4-3.7,9.4-3.8Z"/>
        <path class="st22" d="M195.4,469.3l11.6-3c1.8,1.8,11.5,7.7,10.3,10.3s-10.5,4-12.6,3.3c-2-.7-11.7-8.3-9.3-10.6Z"/>
        <path class="st20" d="M178.7,475.2l12.5-2.7c1.6,1.8,10.5,7.5,9.4,10s-10.5,4-12.6,3.3-11.3-8.6-9.3-10.6Z"/>
        <path class="st22" d="M159,387.4l-12.5,2.7c-1.6-1.6-11.6-8.4-9.3-10.6,4,.1,8.3-4.1,12.5-2.6,2,.7,11.3,8.6,9.3,10.6Z"/>
        <path class="st22" d="M130.9,413.3c.4-.4,10.6-2.2,12.4-1.6s9.6,7.8,9.4,8.9c-3.4,2.5-8.6,4.6-12.8,3.4s-12.2-7.5-9.1-10.7Z"/>
        <path class="st22" d="M156.6,405.3c4.5.1,10.2,5.6,12.8,9.3-10.1,7.1-15,4.3-22.5-4.2-.1-2.6,7.5-5.1,9.7-5.1Z"/>
        <path class="st26" d="M196.9,406.2l-7,1.1-10.7-10.2c2.4-1.8,5.5-2.8,8.3-1.5,1.4.7,11.2,8.8,9.3,10.6Z"/>
        <path class="st26" d="M165.1,375.7c-4,8.8-12.8.6-17-4.1-.9-1-2.3-.4-1-3.1,9.3-3.6,10.8,3.8,18,7.3Z"/>
        <path class="st26" d="M114.8,340.4c7.9-3.2,12.7,3.5,17.7,9.1-2.5,1.9-5.4,2.6-8.3,1.5s-11.2-8.8-9.3-10.6Z"/>
        <path class="st26" d="M233.5,436.6c2.5,0,12.3,8.1,11.3,10.3-3,6.8-17.7-5.6-16.5-8.2.4-.9,4-2.1,5.2-2.1Z"/>
        <path class="st26" d="M260.2,468.5c2.3-10,18.5,2.8,16.9,6.4-3,6.8-13.8-4.7-16.9-6.4Z"/>
        <path class="st20" d="M180.5,389l-.6,3.5c-7.8,2.5-10-3.5-16-6.7v-3.9c8-2.6,10.4,4,16.6,7Z"/>
        <path class="st20" d="M248.9,451.1c5.2,0,9.7,5.3,12.8,9.3-6.8,6.4-13.2-2.9-18-7.3,1.4-1.2,3.4-2,5.2-2Z"/>
        <path class="st26" d="M212.7,417.1c.4,1.1-.2,2.4-.5,3.5-4.7,3.8-18.5-8.3-16-10.7,4.1-2.6,15.5,4.4,16.5,7.2Z"/>
        <path class="st26" d="M229.1,434.2c-8,2-12.9-3.7-17.7-9.1,6.1-4.8,11.1,0,15.5,4.6,1.3,1.4,3.2,1.9,2.2,4.5Z"/>
        <path class="st20" d="M147.8,364.6l-8-.4c-3.9-3.4-13.8-7.7-4.5-10.8,3.2-1,14.7,9.1,12.5,11.2Z"/>
      </g>
    </g>
  </g>
</svg>