<?xml version="1.0" encoding="UTF-8"?>
<svg id="b9950e65-c983-427f-969f-411e60d4718f" xmlns="http://www.w3.org/2000/svg" version="1.1" xmlns:xlink="http://www.w3.org/1999/xlink" viewBox="0 0 488.6 488.6">
  <!-- Generator: Adobe Illustrator 29.3.1, SVG Export Plug-In . SVG Version: 2.1.0 Build 151)  -->
  <defs>
    <style>
      .st0 {
        isolation: isolate;
        opacity: 0;
      }

      .st0, .st1, .st2, .st3 {
        fill-rule: evenodd;
      }

      .st1 {
        fill: #fff;
      }

      .st2 {
        fill: #bdc5d1;
      }

      .st4 {
        fill: none;
        stroke: #fff;
        stroke-linecap: round;
        stroke-miterlimit: 10;
        stroke-width: 3px;
      }

      .st5, .st3 {
        fill: #e7eaf3;
      }

      .st6 {
        fill: #f7f9fa;
      }
    </style>
  </defs>
  <circle id="SVGID" class="st6" cx="244.3" cy="244.3" r="244.3"/>
  <polygon class="st2" points="47.4 297.1 106.5 224 382.8 224 441.4 297.1 441.4 407.7 47.4 407.7 47.4 297.1"/>
  <g>
    <path class="st1" d="M332.8,45.2H105.1c-2.3,0-4.2,1.9-4.2,4.2v301c0,2.3,1.9,4.2,4.2,4.2h278.6c2.3,0,4.2-1.9,4.2-4.2V100.2l-55.1-55Z"/>
    <path class="st5" d="M387.8,100.2l-55-55h-.2l8.5,55.6c1.2,7.9,8.6,13.3,16.4,12.1l30.3-4.6v-8.1h0Z"/>
    <path class="st3" d="M329.8,192.8h-169.2c-3.5,0-6.3-2.8-6.3-6.3v-85.1c0-3.5,2.8-6.3,6.3-6.3h169.2c3.5,0,6.3,2.8,6.3,6.3v85.1c0,3.4-2.8,6.3-6.3,6.3Z"/>
    <path class="st0" d="M329.8,192.8h-169.2c-3.5,0-6.3-2.8-6.3-6.3v-85.1c0-3.5,2.8-6.3,6.3-6.3h169.2c3.5,0,6.3,2.8,6.3,6.3v85.1c0,3.4-2.8,6.3-6.3,6.3Z"/>
    <path class="st3" d="M326.7,232.1h-164.7c-1.3,0-2.4-1.1-2.4-2.4h0c0-1.3,1.1-2.4,2.4-2.4h164.8c1.3,0,2.4,1.1,2.4,2.4h0c0,1.3-1.1,2.4-2.5,2.4Z"/>
    <path class="st3" d="M326.7,250.3h-164.7c-1.3,0-2.4-1.1-2.4-2.4h0c0-1.3,1.1-2.4,2.4-2.4h164.8c1.3,0,2.4,1.1,2.4,2.4h0c0,1.3-1.1,2.4-2.5,2.4Z"/>
    <path class="st3" d="M280,268.6h-118c-1.3,0-2.4-1.1-2.4-2.4h0c0-1.3,1.1-2.4,2.4-2.4h118.1c1.3,0,2.4,1.1,2.4,2.4h0c0,1.3-1.1,2.4-2.5,2.4Z"/>
    <path class="st4" d="M197.1,163.2c1.1-3.2,2.4-6.4,3.9-9.4,2.5-5.1,5.8-10.6,10.8-13.7,6.3-3.9,12.2-.3,16.6,4.7,3.5,4,6.8,8.4,11.7,10.7,3.8,1.8,8,2.1,12,1,6.4-1.7,11.8-6.3,16-11.2.5-.6,1-1.2,1.5-1.9,3.1-4.4,5.3-10.6,1.4-15.2-.7-.8-1.5-1.5-2.5-2.1-2.2-1.3-5-1.8-7.4-1.1-2.6.7-4.3,2.9-4.7,5.5-.1.4-.1.9-.1,1.3-.1,4.4,2.6,8.5,5.7,11.5,5.9,5.6,14.3,7.8,22.2,8.2,3.1.2,6.1,0,9.2-.3"/>
  </g>
  <path class="st3" d="M345.5,297.1c-10.9,0-19.8,8.8-19.8,19.7s-8.8,19.7-19.7,19.7h-123.4c-10.9,0-19.7-8.8-19.7-19.7s-8.8-19.7-19.8-19.7H46.8v120c0,15.7,12.8,28.5,28.5,28.5h338c15.7,0,28.5-12.8,28.5-28.5v-120h-96.3Z"/>
</svg>